<?xml version="1.0" encoding="UTF-8"?>
<svg id="Layer_2" data-name="Layer 2" xmlns="http://www.w3.org/2000/svg" viewBox="0 0 97.91 97.91">
  <defs>
    <style>
      .cls-1, .cls-2 {
        isolation: isolate;
      }

      .cls-3, .cls-2 {
        fill: #fff;
      }

      .cls-2 {
        font-family: Soleil-Bold, Soleil;
        font-size: 40px;
        font-weight: 700;
      }

      .cls-4 {
        fill: #c84933;
      }
    </style>
  </defs>
  <g id="Calque_1" data-name="Calque 1">
    <rect class="cls-4" width="97.91" height="97.91" rx="13.83" ry="13.83"/>
    <g id="EUS" class="cls-1">
      <text class="cls-2" transform="translate(10.85 44.95)"><tspan x="0" y="0">EUS</tspan></text>
    </g>
    <g>
      <path class="cls-3" d="M63.9,54.08h-30.52c-2.78,0-5.02,2.25-5.02,5.03v21.13c0,2.78,2.25,5.03,5.02,5.03h30.52c2.78,0,5.02-2.25,5.02-5.03v-21.13c0-2.78-2.25-5.03-5.02-5.03ZM31.77,65.9h8.4v4.2h-8.4v-4.2ZM52.84,78.49h-21.07v-4.12h21.07v4.12ZM65.52,78.49h-8.4v-4.12h8.4v4.12ZM65.52,70.1h-21.07v-4.2h21.07v4.2Z"/>
      <path class="cls-3" d="M50.59,81.93s-.86,7.28,6.53,8.86c-.55-4.35,0-8.86,0-8.86h-6.53Z"/>
    </g>
  </g>
</svg>