<svg version="1.2" xmlns="http://www.w3.org/2000/svg" viewBox="0 0 70 91" width="380" height="494">
	<defs>
		<clipPath clipPathUnits="userSpaceOnUse" id="cp1">
			<path d="m-108.61 3.51h85.04v85.04h-85.04z"/>
		</clipPath>
	</defs>
	<style>
		.s0 { fill: #010202 } 
	</style>
	<g>
		<g id="Clip-Path" clip-path="url(#cp1)">
			<g>
			</g>
		</g>
	</g>
	<g>
		<path class="s0" d="m51.66 66.98q-4.12-3.32-8.07-6.51c-2.56 2.42-5.12 4.84-7.9 7.46-2.61-2.58-5.1-5.04-7.61-7.52-2.55 2.07-5.32 4.31-8.18 6.62-1.01-1.13-1.96-2.16-2.87-3.23-5.97-7.03-10.19-14.94-11.98-24.06-1.77-9.04-0.03-17.27 5.99-24.38 5.17-6.11 11.84-9.68 19.74-10.83 9.18-1.32 17.66 0.61 25.04 6.33 7.96 6.16 11.99 14.32 11.3 24.49-0.53 7.81-3.3 14.93-7.44 21.54-2.18 3.49-6.01 8.3-8.02 10.09zm-11.15-22.48c-0.92-1.5-1.7-2.81-2.5-4.1-0.3-0.48-0.35-0.93-0.13-1.49 0.28-0.74 0.43-1.53 0.61-2.3 0.23-1.02-0.19-1.81-1.04-2.34-1.04-0.64-2.14-0.66-3.2-0.05-0.87 0.5-1.35 1.27-1.12 2.29 0.26 1.12 0.51 2.26 0.96 3.31 2.36 5.63 5.94 10.45 10.22 14.76 2.15 2.16 4.48 4.15 6.69 6.17 0.21-0.13 0.24-0.14 0.26-0.16 6.04-7.23 10.15-15.32 11.17-24.8 0.75-6.86-1.22-12.9-5.82-17.97-10.98-12.08-30.41-12.14-41.48-0.14-4.47 4.85-6.54 10.67-6.03 17.29 0.49 6.51 2.66 12.49 5.93 18.1 1.57 2.71 3.38 5.24 5.46 7.68 1.64-1.41 3.22-2.77 4.85-4.16-0.23-0.33-0.41-0.6-0.59-0.86-3.18-4.52-5.64-9.4-7.26-14.7-1.37-4.48-1.32-8.93 0.72-13.21 4.1-8.56 16.72-15.19 28.29-7.6 6.62 4.33 9.51 10.46 8.23 18.37-0.62 3.76-2.09 7.25-3.77 10.64-0.74 1.5-1.56 2.96-2.42 4.57-1.03-1.01-1.91-1.92-2.83-2.78-0.45-0.43-0.52-0.76-0.2-1.35 1.72-3.13 3.24-6.36 4.21-9.82 1.76-6.3 0.17-11.38-4.79-15.12-7.87-5.92-17.01-2.96-21.56 3.4-2.65 3.69-2.69 7.84-1.32 12.03 1.91 5.87 4.8 11.22 8.82 15.92 1.58 1.86 3.26 3.64 4.84 5.39 1.61-1.52 3.1-2.93 4.56-4.3-1.57-1.84-3.01-3.54-4.49-5.28-0.63 0.77-1.24 1.54-1.92 2.38-1.03-1.33-1.96-2.54-2.87-3.73 0.59-0.8 1.09-1.53 1.66-2.21 0.36-0.42 0.28-0.73 0.03-1.17-0.9-1.62-1.8-3.25-2.58-4.93-0.91-1.96-1.67-4.01-1.66-6.2 0.03-3.56 3.03-6.56 6.67-6.83 3.94-0.3 7.46 2.23 7.96 5.88 0.46 3.37-1.16 6.23-2.56 9.42z"/>
		<g>
			<path class="s0" d="m16 81.61h2.42v4.63c-1.26 0.94-2.98 1.45-4.61 1.45-3.59 0-6.23-2.47-6.23-5.9 0-3.44 2.64-5.9 6.27-5.9 2.01 0 3.67 0.68 4.78 1.97l-1.7 1.56c-0.83-0.88-1.79-1.28-2.95-1.28-2.21 0-3.73 1.48-3.73 3.65 0 2.13 1.52 3.65 3.7 3.65 0.72 0 1.39-0.13 2.06-0.49z"/>
			<path class="s0" d="m28.13 87.49l-2.2-3.18h-0.13-2.3v3.18h-2.64v-11.41h4.94c3.05 0 4.95 1.58 4.95 4.14 0 1.71-0.86 2.97-2.34 3.61l2.56 3.66c0 0-2.84 0-2.84 0zm-2.48-9.26h-2.15v3.98h2.15c1.62 0 2.43-0.75 2.43-1.99 0-1.25-0.81-1.99-2.43-1.99z"/>
			<path class="s0" d="m40.35 85.05h-5.29l-1.01 2.44h-2.71l5.09-11.41h2.6l5.1 11.41h-2.77zm-0.83-2.01l-1.81-4.36-1.81 4.36z"/>
			<path class="s0" d="m45.32 76.08h2.64v9.26h5.73v2.15h-8.36c0 0 0-11.41-0.01-11.41z"/>
			<path class="s0" d="m55.17 76.08h2.64v9.26h5.72v2.15h-8.36c0 0 0-11.41 0-11.41z"/>
		</g>
	</g>
	<g>
	</g>
	<g>
	</g>
	<g>
	</g>
	<g>
	</g>
	<g>
	</g>
	<g>
	</g>
</svg>