<?xml version="1.0" encoding="UTF-8"?>
<svg id="Layer_2" data-name="Layer 2" xmlns="http://www.w3.org/2000/svg" viewBox="0 0 97.91 97.91">
  <defs>
    <style>
      .cls-1 {
        fill: #fff;
      }
    </style>
  </defs>
  <g id="Calque_1" data-name="Calque 1">
    <rect class="cls-1" width="97.91" height="97.91" rx="13.83" ry="13.83"/>
    <g>
      <g id="Groupe_39" data-name="Groupe 39">
        <path id="Tracé_124" data-name="Tracé 124" d="M30.76,34.46c1.66-6.65,8.4-10.69,15.05-9.03,6.65,1.66,10.69,8.4,9.03,15.05-.64,2.56-2.08,4.85-4.11,6.53l3.15,1.98c6.37-6.12,6.57-16.24.45-22.61-6.12-6.37-16.24-6.57-22.61-.45-1.88,1.81-3.29,4.05-4.11,6.53l3.16,1.98Z"/>
        <path id="Tracé_125" data-name="Tracé 125" d="M43.52,12.87c-7.39,0-13.64,2.69-18.07,7.78-3.51,4.17-5.63,9.34-6.07,14.77l3.44,2.72c-.07-5.52,1.82-10.88,5.34-15.13,3.73-4.28,9.04-6.55,15.36-6.55,5.84-.18,11.42,2.46,14.99,7.08,2.49,3.13,3.98,6.95,4.27,10.94,0,5.87-.6,12.43-5.06,16.61-4.69,4.27-7.91,9.61-10.49,13.89-1.92,3.19-3.58,5.95-5.3,7.47-3.71,3.28-7.59,1.5-9.57.15l-2.02,2.96c1.78,1.25,3.84,2.03,6,2.28.34.03.67.05,1.01.05,2.58-.02,5.06-1.01,6.96-2.76,2.13-1.88,3.92-4.86,6-8.3,2.59-4.3,5.52-9.18,9.85-13.11,5.51-5.17,6.22-13,6.22-19.25,0-5.77-5.42-21.61-22.85-21.61"/>
      </g>
      <path d="M37,62.5l-14.61-8.26-4.5,4.35h0s-11.51,11.2-11.51,11.2c-1.22,1.18-1.23,3.13-.02,4.33l7.47,7.42c1.19,1.18,3.11,1.17,4.29-.02l6.46-6.51h0s12.42-12.51,12.42-12.51Z"/>
      <path d="M83.06,13.49l-8.53-8.47c-.9-.89-2.35-.89-3.24.01l-1.01,1.01-9.57,9.58c4.78,3.59,7.4,8.55,9.1,14.11l2.19-2.22,11.05-10.75c.92-.89.93-2.37.02-3.27Z"/>
    </g>
    <path d="M87.82,65.86c.12-1.98-1.11-4.26.89-5.64,1.73-1.2,3.61-.34,4.06,1.65.85,3.73.56,9-.44,12.69-.52,1.93-1.39,2.37-3.04,3.3-.02.42.04.85-.02,1.27-.31,2.32-.71,5.04-1.2,7.31-.49,2.26-1.26,2.75-3.55,3.05-4.51.6-10.31,1.29-14.81,1.48-1.07.04-2.56.18-3.38-.59-1.07-1.01-.99-2.45-.37-3.67-1.16,0-2.17.15-3.15-.59-1.34-1.01-1.41-2.78-.37-4.04.21-.25.51-.27.59-.51-4.2-.77-2.75-6.26,1.32-5.14-1.58-1.63-.52-4.62,1.83-4.55,2.07.06,4.7,1.16,6.83,1.32-.55-.59-1.06-1.25-1.61-1.84-1.17-1.25-3.94-3.39-3.94-5.14,0-1.42,1.2-2.67,2.61-2.72-.38-.71-1.02-1.22-1.28-2.02-.75-2.3,1.24-4.13,3.48-3.56-1.55-2.64,1.43-5.44,3.89-3.52.48.37.64.96,1.1,1.32.52-2.49,3.45-3.14,4.87-.83,1.97,3.21,3.39,7.27,5.33,10.52.1.16.15.4.37.44ZM80.44,55.19c-2.84-.66-1.16,2.57-.61,3.91.41,1,1.68,3.18,1.8,4.08.13.98-.93,1.42-1.51.62l-4.86-8.06c-.47-.41-1.06-.54-1.54-.09-.7.64-.05,1.58.28,2.24,1.16,2.33,3.24,4.74,4.26,7.04.52,1.18-.04,1.84-1.14,1.14l-5.23-6.51c-.95-.6-2,.46-1.61,1.46l5.36,6.97c.31.2,1.24-.55,1.95-.49,1.23.11,5.79,3.34,6.86,4.3,1.44,1.28,2.69,2.96,3.96,4.41.41.26,1.87-.75,2.08-1.15.37-.67,1.04-4.29,1.12-5.19.24-2.67-.11-5.6-.52-8.24-1.12-.82-2.01-.12-1.96,1.22.04,1.16.86,4.86-.68,5.32-1.35.4-1.79-.93-2.32-1.88-2.01-3.59-3.63-7.53-5.69-11.11ZM78.87,74.37c-1.19-1.33-3.87-1.92-3.95-4.06-.01-.35.25-.84.08-1.09-.08-.11-.47-.18-.68-.35-.93-.79-2.76-3.14-3.61-3.59-.45-.23-.83-.28-1.24.04-.85.67-.26,1.47.24,2.13,1.6,2.06,4.24,4.03,5.93,6.11.8.59,2.25.55,3.23.8ZM67.32,89.16c.14.14.47.21.65.3,5.1-.5,10.28-.81,15.37-1.43,1.21-.15,2.79-.06,3.12-1.43.48-2.04.94-5.07,1.19-7.18.09-.77.21-1.15-.15-1.86-.41-.8-2.76-3.44-3.49-4.14-.68-.65-1.7-1.37-2.48-1.92-.62-.44-3.41-2.3-3.95-2.38-.99-.14-1.29.93-.96,1.7s4.37,2.22,4.44,3.94c.06,1.47-1.38,1.33-2.37,1.19-3.91-.55-8.43-2.12-12.24-2.43-1.02-.08-1.49.46-1.16,1.46.19.57,1.69.91,2.28,1.09,1.09.33,4.91,1,5.51,1.54.16.14.28.34.33.54.04.41-.53.9-.93.93-3.21-.4-6.42-1.03-9.65-1.14-.97.22-1.04,1.59,0,1.99,2.3.88,6.73.75,9.34,1.22,1.09.2,1.39,1.14.3,1.6-2.6.25-5.68-.12-8.22.15-1.34.14-1.2,1.93-.11,2.17,2.73.3,5.96-.29,8.63.03,1.21.14,1.11,1.23.25,1.58-1.31.53-4.46.2-5.51.8-.57.32-.65,1.25-.21,1.69Z"/>
  </g>
</svg>